<svg xmlns="http://www.w3.org/2000/svg" xmlns:xlink="http://www.w3.org/1999/xlink" width="80" height="80" viewBox="0 0 80 80"><defs><clipPath id="clip-path"><circle id="Ellipse_640" data-name="Ellipse 640" cx="40" cy="40" r="40" transform="translate(5855 5094)" fill="#fff" stroke="#707070" stroke-width="1"></circle></clipPath><linearGradient id="linear-gradient" x1="0.915" y1="1.056" x2="-0.051" y2="-0.004" gradientUnits="objectBoundingBox"><stop offset="0" stop-opacity="0"></stop><stop offset="1"></stop></linearGradient></defs><g id="applogo" transform="translate(-5855 -5094)" clip-path="url(#clip-path)"><g id="New_App_logo_" data-name="New App logo " transform="translate(5855 5094)"><rect id="Rectangle_3506" data-name="Rectangle 3506" width="80" height="80" fill="#ac016d"></rect><path id="Path_8857" data-name="Path 8857" d="M90.863,77.332h0l-.148-.143-.074-.071-.074-.071-.074-.071-.074-.071-.074-.071-.074-.071L90.2,76.69l-.074-.071-.074-.071-.074-.071L89.9,76.4l-.074-.071-.074-.071-.074-.071-.074-.071-.074-.071-.074-.071-.074-.071-.074-.071-.074-.071-.074-.071-.074-.071-.074-.071-.074-.071-.074-.071-.074-.071-.074-.071-.074-.071-.074-.071-.074-.071-.074-.071-.074-.071-.074-.071-.074-.071-.074-.071-.074-.071-.074-.071-.074-.071-.074-.071-.074-.071-.074-.071-.074-.071-.074-.071-.074-.071-.074-.071-.074-.071-.074-.071-.074-.071-.074-.071-.074-.071-.074-.071-.074-.071-.074-.071-.074-.071-.074-.071-.074-.071-.074-.071-.074-.071-.074-.071-.074-.071-.074-.071-.074-.071-.074-.071-.074-.071-.074-.071-.074-.071-.074-.071-.074-.071-.074-.071-.074-.071-.074-.071-.074-.071-.074-.071-.074-.071-.074-.071-.074-.071-.074-.071-.074-.071-.074-.071-.074-.071-.074-.071-.074-.071-.074-.071-.074-.071-.074-.071-.074-.071-.074-.071-.074-.071-.074-.071-.074-.071-.074-.071-.074-.071-.074-.071-.074-.071-.074-.071-.074-.071-.074-.071-.074-.071-.074-.071-.074-.071-.074-.071-.074-.071-.074-.071-.074-.071-.074-.071-.074-.071-.074-.071-.074-.071-.074-.071-.074-.071-.074-.071-.074-.071-.074-.071-.074-.071-.074-.071-.074-.071-.074-.071-.074-.071L81.9,68.7l-.074-.071-.074-.071-.074-.071-.074-.071-.074-.071-.074-.071-.074-.071-.074-.071-.074-.071-.074-.071-.074-.071-.074-.071-.074-.071-.074-.071-.074-.071-.074-.071-.074-.071-.074-.071-.074-.071-.074-.071-.074-.071-.074-.071-.074-.071-.074-.071-.074-.071-.074-.071L79.9,66.77l-.074-.071-.074-.071-.074-.071-.074-.071-.074-.071-.074-.071-.074-.071-.074-.071-.074-.071-.074-.071-.074-.071-.074-.071-.074-.071-.074-.071-.074-.071-.074-.071-.074-.071-.074-.071-.074-.071-.074-.071-.074-.071-.074-.071-.074-.071-.074-.071-.074-.071-.074-.071-.074-.071-.074-.071-.074-.071-.074-.071-.074-.071-.074-.071-.074-.071-.074-.071-.074-.071-.074-.071-.074-.071-.074-.071-.074-.071-.074-.071-.074-.071-.074-.071-.074-.071-.074-.071-.074-.071-.074-.071-.074-.071-.074-.071-.074-.071L76.2,63.2l-.074-.071-.074-.071-.074-.071-.074-.071-.074-.071-.074-.071-.074-.071-.074-.071-.074-.071-.074-.071-.074-.071-.074-.071-.074-.071L75.16,62.2l-.074-.071-.074-.071-.074-.071-.074-.071-.074-.071-.074-.071-.074-.071-.074-.071-.074-.071-.074-.071-.074-.071-.074-.071-.074-.071-.074-.071-.074-.071-.074-.071-.074-.071-.074-.071-.074-.071-.074-.071L73.6,60.7l-.074-.071-.074-.071-.074-.071-.074-.071-.074-.071-.074-.071-.074-.071-.074-.071-.074-.071-.074-.071-.074-.071-.074-.071-.074-.071-.074-.071-.074-.071-.074-.071-.074-.071-.074-.071-.074-.071-.074-.071-.074-.071-.074-.071-.074-.071-.074-.071-.074-.071-.074-.071-.074-.071-.074-.071-.074-.071-.074-.071-.074-.071-.074-.071-.074-.071-.074-.071-.074-.071-.074-.071-.074-.071-.074-.071-.074-.071-.074-.071-.074-.071-.074-.071-.074-.071-.074-.071-.074-.071-.074-.071-.074-.071-.074-.071-.074-.071-.074-.071-.074-.071-.074-.071-.074-.071L69.6,56.85l-.074-.071-.074-.071-.074-.071-.074-.071-.074-.071-.074-.071-.074-.071-.074-.071-.074-.071-.074-.071-.074-.071-.074-.071-.074-.071-.074-.071-.074-.071-.074-.071-.074-.071-.074-.071-.074-.071-.074-.071-.074-.071-.074-.071-.074-.071-.074-.071-.074-.071-.074-.071-.074-.071-.074-.071-.074-.071-.074-.071-.074-.071-.074-.071L67.16,54.5l-.074-.071-.074-.071-.074-.071-.074-.071-.074-.071-.074-.071L66.641,54l-.074-.071-.074-.071-.074-.071-.074-.071-.074-.071-.074-.071-.074-.071-.074-.071-.074-.071-.074-.071-.074-.071-.074-.071-.074-.071L65.6,53l-.074-.071-.074-.071-.074-.071-.074-.071-.074-.071-.074-.071-.074-.071-.074-.071a8.5,8.5,0,0,0-14.444,5.638,7.944,7.944,0,0,0,2.519,5.781l.074.071.074.071.074.071.074.071.074.071.074.071.074.071.074.071.074.071.074.071.074.071.074.071.074.071.074.071.074.071.074.071.074.071.074.071.074.071.074.071.074.071.074.071.074.071.074.071.074.071.074.071.074.071.074.071.074.071.074.071.074.071.074.071.074.071.074.071.074.071.074.071.074.071.074.071.074.071.074.071.074.071.074.071.074.071.074.071.074.071.074.071.074.071.074.071.074.071.074.071.074.071.074.071a8.624,8.624,0,0,1-5.259-2.5A17.394,17.394,0,0,0,41.9,73.978a23.591,23.591,0,0,0,2.222,2.5l.074.071.074.071.074.071.074.071.074.071.074.071.074.071.074.071.074.071.074.071.074.071.074.071.074.071.074.071.074.071.074.071.074.071.074.071.074.071.074.071.074.071.074.071.074.071.074.071.074.071.074.071.074.071.074.071.074.071.074.071.074.071.074.071.074.071.074.071.074.071.074.071.074.071.074.071.074.071.074.071.074.071.074.071.074.071.074.071.074.071.074.071.074.071.074.071.074.071.074.071.074.071.074.071.074.071.074.071.074.071.074.071.074.071.074.071.074.071.074.071.074.071.074.071.074.071.074.071.074.071.074.071.074.071.074.071.074.071.074.071.074.071.074.071.074.071.074.071.074.071.074.071.074.071.074.071.074.071.074.071.074.071.074.071.074.071.074.071.074.071.074.071.074.071.074.071.074.071.074.071.074.071.074.071.074.071.074.071.074.071.074.071.074.071.074.071.074.071.074.071.074.071.074.071.074.071.074.071.074.071.074.071.074.071.074.071.074.071.074.071.074.071.074.071.074.071.074.071.074.071.074.071.074.071.074.071.074.071.074.071.074.071.074.071.074.071.074.071.074.071.074.071.074.071.074.071.074.071.074.071.074.071.074.071.074.071.074.071.074.071.074.071.074.071.074.071.074.071.074.071.074.071.074.071.074.071.074.071.074.071.074.071.074.071.074.071.074.071.074.071.074.071.074.071.074.071.074.071.074.071.074.071.074.071.074.071.074.071.074.071.074.071.074.071.074.071.074.071.074.071.074.071.074.071.074.071.074.071.074.071.074.071.074.071.074.071.074.071.074.071.074.071.074.071.074.071.074.071.074.071.074.071.074.071.074.071.074.071.074.071.074.071.074.071.074.071.074.071.074.071.074.071.074.071.074.071.074.071.074.071.074.071.074.071.074.071.074.071.074.071.074.071.074.071.074.071.074.071.074.071.074.071.074.071.074.071.074.071.074.071.074.071.074.071.074.071.074.071.074.071.074.071.074.071.074.071.074.071.074.071.074.071.074.071.074.071.074.071.074.071.074.071.074.071.074.071.074.071.074.071.074.071h29.63Z" transform="translate(-10.863 -12.962)" opacity="0.2" fill="url(#linear-gradient)"></path><g id="Group_4913" data-name="Group 4913" transform="translate(24.074 28.885)"><g id="Group_4912" data-name="Group 4912"><path id="Path_8858" data-name="Path 8858" d="M51.044,55.739A8.373,8.373,0,0,0,51.341,39a8.5,8.5,0,0,0-8.741,8.37A8.332,8.332,0,0,0,51.044,55.739Z" transform="translate(-35.119 -38.995)" fill="#fff"></path><path id="Path_8859" data-name="Path 8859" d="M54.574,61.7a8.378,8.378,0,0,1-6.148,2.593A8.542,8.542,0,0,1,42.278,61.7,17.656,17.656,0,0,0,32.5,70.959a19.852,19.852,0,0,0,31.852,0A17.376,17.376,0,0,0,54.574,61.7Z" transform="translate(-32.5 -44.881)" fill="#fff"></path></g></g><path id="Path_8860" data-name="Path 8860" d="M66.926,45.222A21.607,21.607,0,0,0,47.667,25.963V23H43.222v2.963A21.607,21.607,0,0,0,23.963,45.222H21v4.444h2.963a21.67,21.67,0,0,0,3.556,9.778A18.561,18.561,0,0,1,30.63,55.37a16.151,16.151,0,0,1-1.852-5.7,3.606,3.606,0,0,1-.074-.889V46.111c0-.3.074-.593.074-.889A16.893,16.893,0,0,1,43.222,30.778a3.606,3.606,0,0,1,.889-.074h2.667c.3,0,.593.074.889.074A16.893,16.893,0,0,1,62.111,45.222a3.606,3.606,0,0,1,.074.889v2.667c0,.3-.074.593-.074.889a17.19,17.19,0,0,1-1.852,5.7,15.262,15.262,0,0,1,3.111,4.074,21.053,21.053,0,0,0,3.556-9.778h2.963V45.222Z" transform="translate(-5.444 -5.963)" fill="#fff" opacity="0.8"></path></g></g></svg>