<svg xmlns="http://www.w3.org/2000/svg" xmlns:xlink="http://www.w3.org/1999/xlink" height="96" width="96"><linearGradient id="a"><stop offset="0" stop-color="#fefefe"></stop><stop offset="1" stop-color="#fefefe" stop-opacity="0"></stop></linearGradient><linearGradient id="b" gradientTransform="scale(1.0058652 .994169)" gradientUnits="userSpaceOnUse" x1="45.447727" x2="45.447727" y1="92.539597" y2="7.01654"><stop offset="0"></stop><stop offset="1" stop-opacity=".588235"></stop></linearGradient><linearGradient id="c" gradientUnits="userSpaceOnUse" x1="69.000008" x2="69.000008" y1="-5.999998" y2="-48.0061395"><stop offset="0" stop-color="#f6a200"></stop><stop offset="1" stop-color="#ff6900"></stop></linearGradient><linearGradient id="d" gradientUnits="userSpaceOnUse" x1="69.000008" x2="69.000008" y1="-48" y2="-90.0061415"><stop offset="0" stop-color="#0065cd"></stop><stop offset="1" stop-color="#0693c3"></stop></linearGradient><linearGradient id="e" gradientUnits="userSpaceOnUse" x1="27.000008" x2="27.000008" y1="-47.999998" y2="-90.0061395"><stop offset="0" stop-color="#018f3b"></stop><stop offset="1" stop-color="#00af33"></stop></linearGradient><linearGradient id="f" gradientUnits="userSpaceOnUse" x1="27.000008" x2="27.000008" y1="-6" y2="-48.0061415"><stop offset="0" stop-color="#ff2100"></stop><stop offset="1" stop-color="#ff3602"></stop></linearGradient><linearGradient id="g" gradientUnits="userSpaceOnUse" x1="24" x2="24" xlink:href="#a" y1="48" y2="88"></linearGradient><linearGradient id="h" gradientUnits="userSpaceOnUse" x1="66" x2="66" xlink:href="#a" y1="6" y2="46"></linearGradient><linearGradient id="i" gradientUnits="userSpaceOnUse" x1="24" x2="24" xlink:href="#a" y1="6" y2="46"></linearGradient><linearGradient id="j" gradientUnits="userSpaceOnUse" x1="66" x2="66" xlink:href="#a" y1="48" y2="88"></linearGradient><linearGradient id="k" gradientUnits="userSpaceOnUse" x1="22" x2="22" xlink:href="#b" y1="94" y2="5"></linearGradient><linearGradient id="l" gradientUnits="userSpaceOnUse" x1="29" x2="29" xlink:href="#b" y1="93" y2="6"></linearGradient><linearGradient id="m" gradientUnits="userSpaceOnUse" x1="32" x2="32" xlink:href="#b" y1="91" y2="7"></linearGradient><linearGradient id="n" gradientUnits="userSpaceOnUse" x1="32" x2="32" xlink:href="#b" y1="91" y2="7.945801"></linearGradient><linearGradient id="o" gradientUnits="userSpaceOnUse" x1="21" x2="21" xlink:href="#b" y1="95" y2="4"></linearGradient><g><path d="m12 4c-5.488055 0-10 4.5119452-10 10v29c0 2.498542 1.137525 4.586599 2.65625 6.25-1.427418 1.549061-2.367899 3.521646-2.59375 5.71875-.043003.334223-.0625.680522-.0625 1.03125v29c0 5.488055 4.511945 10 10 10h30c2.37739 0 4.366863-1.047966 6-2.40625.204142.169786.409661.341353.625.5 1.507375 1.110531 3.294784 1.90625 5.375 1.90625h30c.686007 0 1.351403-.08466 2-.21875 1.945793-.402277 3.702005-1.358255 5.0625-2.71875 1.813993-1.813993 2.9375-4.318472 2.9375-7.0625v-29c0-.350728-.0195-.697027-.0625-1.03125-.225851-2.197104-1.166332-4.169689-2.59375-5.71875 1.518725-1.663401 2.65625-3.751458 2.65625-6.25v-29c0-5.4880548-4.511945-10-10-10h-30c-2.249582 0-4.321959.75856-6 2.03125-1.678041-1.27269-3.750418-2.03125-6-2.03125z" fill="url(#o)" opacity=".08"></path><path d="m12 5c-4.950975 0-9 4.0490253-9 9v29c0 2.572445 1.256929 4.731671 3 6.34375-1.828043 1.650103-3 4.014049-3 6.65625v29c0 4.950975 4.049025 9 9 9h30c2.388675 0 4.414304-1.080788 6-2.59375.198212.18912.41319.356902.625.53125 1.482668 1.220436 3.284909 2.0625 5.375 2.0625h30c.309436 0 .604629-.000385.90625-.03125.301621-.03087.61398-.09606.90625-.15625 1.169079-.240771 2.260761-.695197 3.21875-1.34375.239497-.162138.465038-.347467.6875-.53125 2.002162-1.654046 3.28125-4.152577 3.28125-6.9375v-29c0-2.642201-1.171957-5.006147-3-6.65625 1.743071-1.612079 3-3.771305 3-6.34375v-29c0-4.9509747-4.049025-9-9-9h-30c-2.308774 0-4.402642.901878-6 2.34375-1.597358-1.441872-3.691226-2.34375-6-2.34375zm36 44.3125c.0434.04032.08101.08533.125.125-.04357.03986-.08363.08311-.125.125-.04137-.04189-.08143-.08514-.125-.125.04399-.03967.0816-.08468.125-.125z" fill="url(#k)" opacity=".1"></path><path d="m12 6c-4.406694 0-8 3.593306-8 8v29c0 2.689622 1.365461 5.027239 3.40625 6.46875-1.280261.902343-2.266756 2.176771-2.84375 3.65625-.0929.238215-.179962.470206-.25.71875-.03011.103939-.06793.206775-.09375.3125-.066158.276905-.119868.556668-.15625.84375-.041887.330518-.0625.658412-.0625 1v29c0 4.406694 3.593306 8 8 8h30c2.422034 0 4.538346-1.140945 6-2.84375.182707.212851.391267.430839.59375.625 1.417383 1.35913 3.28697 2.21875 5.40625 2.21875h30c.275418 0 .544115-.0039.8125-.03125 2.147081-.219152 4.037725-1.293557 5.34375-2.875 1.142772-1.383763 1.84375-3.165821 1.84375-5.09375v-29c0-.341588-.02061-.669482-.0625-1-.03638-.287082-.09009-.566845-.15625-.84375-.02469-.103352-.06507-.210728-.09375-.3125-.07102-.245162-.156096-.484279-.25-.71875-.576994-1.479479-1.563489-2.753907-2.84375-3.65625 2.040789-1.441511 3.40625-3.779128 3.40625-6.46875v-29c0-4.406694-3.593306-8-8-8h-30c-2.389492 0-4.532033 1.0489117-6 2.71875-1.467967-1.6698383-3.610508-2.71875-6-2.71875zm36 42.21875c.431235.482426.935293.910928 1.46875 1.28125-.539243.390594-1.035894.839005-1.46875 1.34375-.432856-.504745-.929507-.953156-1.46875-1.34375.533457-.370322 1.037515-.798824 1.46875-1.28125z" fill="url(#l)" opacity=".2"></path><path d="m12 7c-3.878 0-7 3.122-7 7v29c0 2.969094 1.839232 5.479063 4.4375 6.5-.332335.130584-.663773.259894-.96875.4375-.887064.51659-1.636611 1.252826-2.21875 2.09375-.01606.0232-.04671.03909-.0625.0625-.156349.231807-.278093.468149-.40625.71875-.01741.03377-.04563.05966-.0625.09375-.05915.120321-.103919.250863-.15625.375-.08328.19619-.184678.388674-.25.59375-.003.0094.0029.02179 0 .03125-.0446.142202-.05816.291439-.09375.4375-.02992.123715-.07046.248773-.09375.375-.01537.08324-.01885.16572-.03125.25-.049924.338594-.09375.678352-.09375 1.03125v29c0 3.878 3.122 7 7 7h30c2.557737 0 4.77882-1.368894 6-3.40625.152648.25467.317401.486338.5.71875 1.278193 1.626884 3.26198 2.6875 5.5 2.6875h30c.242375 0 .482859-.0074.71875-.03125 2.358911-.23813 4.362378-1.640972 5.4375-3.625.537561-.992014.84375-2.131875.84375-3.34375v-29c0-.352898-.04383-.692656-.09375-1.03125-.01234-.08372-.01599-.167292-.03125-.25-.02378-.128765-.06303-.248898-.09375-.375-.130124-.537994-.316619-1.05045-.5625-1.53125-.128157-.250601-.249901-.486943-.40625-.71875-.01579-.02341-.04644-.0393-.0625-.0625-.582139-.840924-1.331686-1.57716-2.21875-2.09375-.0074-.0043-.02385.0043-.03125 0-.297847-.171893-.613744-.310287-.9375-.4375 2.598268-1.020937 4.4375-3.530906 4.4375-6.5v-29c0-3.878-3.122-7-7-7h-30c-2.557737 0-4.77882 1.3688935-6 3.40625-1.22118-2.0373565-3.442263-3.40625-6-3.40625zm36 39.5625c.78946 1.318846 1.987022 2.367564 3.4375 2.9375-.319429.127033-.643482.266722-.9375.4375-.03211.01865-.06197.04335-.09375.0625-.333179.200712-.643646.435798-.9375.6875-.219536.188044-.430255.380248-.625.59375-.111162.120925-.210045.246348-.3125.375-.192914.242484-.371196.482974-.53125.75-.160054-.267026-.338336-.507516-.53125-.75-.102455-.128652-.201338-.254075-.3125-.375-.194745-.213502-.405464-.405706-.625-.59375-.293854-.251702-.604321-.486788-.9375-.6875-.03198-.01913-.06143-.04386-.09375-.0625-.294018-.170778-.618071-.310467-.9375-.4375 1.450478-.569936 2.64804-1.618654 3.4375-2.9375z" fill="url(#m)" opacity=".3"></path><path d="m12 7c-3.324 0-6 2.676-6 6v30c0 3.324 2.676 6 6 6-3.324 0-6 2.676-6 6v30c0 3.324 2.676 6 6 6h30c3.324 0 6-2.676 6-6 0 .20775.01084.422808.03125.625.306167 3.032886 2.8525 5.375 5.96875 5.375h30c3.324 0 6-2.676 6-6v-30c0-3.324-2.676-6-6-6 3.324 0 6-2.676 6-6v-30c0-3.324-2.676-6-6-6h-30c-3.324 0-6 2.676-6 6 0-3.324-2.676-6-6-6zm36 36c0 3.324 2.676 6 6 6-3.11625 0-5.662583 2.342114-5.96875 5.375-.020411.202192-.03125.41725-.03125.625 0-3.324-2.676-6-6-6 3.324 0 6-2.676 6-6z" fill="url(#n)" opacity=".45"></path></g><g><rect fill="url(#c)" height="42" rx="6" transform="rotate(90)" width="42" x="48.000004" y="-47.999996"></rect><path d="m12 48c-3.324 0-6 2.676-6 6v30c0 3.324 2.676 6.000004 6 6h30c3.324 0 6-2.675996 6-6v-30c0-3.324-2.676-6-6-6zm0 1h30c2.778924 0 5 2.221076 5 5v30c0 2.778929-2.221075 5-5 5h-30c-2.778922.000003-5-2.221076-5-5v-30c0-2.778924 2.221076-5 5-5z" fill="#fefefe" opacity=".3"></path><rect fill="url(#d)" height="42" rx="6" transform="rotate(90)" width="42" x="48.000004" y="-90"></rect><path d="m54 48c-3.324 0-6 2.676-6 6v30c0 3.324 2.676 6.000004 6 6h30c3.324 0 6-2.675996 6-6v-30c0-3.324-2.676-6-6-6zm0 1h30c2.778924 0 5 2.221076 5 5v30c0 2.778929-2.221075 5-5 5h-30c-2.778922.000003-5-2.221076-5-5v-30c0-2.778924 2.221076-5 5-5z" fill="#fefefe" opacity=".2"></path><rect fill="url(#e)" height="42" rx="6" transform="rotate(90)" width="42" x="6.000004" y="-90"></rect><path d="m54 6c-3.324 0-6 2.676-6 6v30c0 3.324 2.676 6.000004 6 6h30c3.324 0 6-2.675996 6-6v-30c0-3.324-2.676-6-6-6zm0 1h30c2.778924 0 5 2.221076 5 5v30c0 2.778929-2.221075 5-5 5h-30c-2.778922.000003-5-2.221076-5-5v-30c0-2.778924 2.221076-5 5-5z" fill="#fefefe" opacity=".3"></path><rect fill="url(#f)" height="42" rx="6" transform="rotate(90)" width="42" x="6.000004" y="-48"></rect><path d="m12 6c-3.324 0-6 2.676-6 6v30c0 3.324 2.676 6.000004 6 6h30c3.324 0 6-2.675996 6-6v-30c0-3.324-2.676-6-6-6zm0 1h30c2.778924 0 5 2.221076 5 5v30c0 2.778929-2.221075 5-5 5h-30c-2.778922.000003-5-2.221076-5-5v-30c0-2.778924 2.221076-5 5-5z" fill="#fefefe" opacity=".2"></path><path d="m12 48c-3.324 0-6 2.676-6 6v30c0 2.984862 2.152831 5.434872 5 5.90625-2.286789-.463119-4-2.474691-4-4.90625v-30c0-2.778924 2.221076-5 5-5h30c2.778924 0 5 2.221076 5 5v30c0 2.431563-1.71321 4.44313-4 4.90625 2.847169-.47138 5-2.921384 5-5.90625v-30c0-3.324-2.676-6-6-6z" fill="url(#g)" opacity=".1"></path><path d="m54 6c-3.324 0-6 2.676-6 6v30c0 2.984862 2.152831 5.434872 5 5.90625-2.286789-.463119-4-2.474691-4-4.90625v-30c0-2.778924 2.221076-5 5-5h30c2.778924 0 5 2.221076 5 5v30c0 2.431563-1.71321 4.44313-4 4.90625 2.847169-.47138 5-2.921384 5-5.90625v-30c0-3.324-2.676-6-6-6z" fill="url(#h)" opacity=".1"></path><path d="m12 6c-3.324 0-6 2.676-6 6v30c0 2.984862 2.152831 5.434872 5 5.90625-2.286789-.463119-4-2.474691-4-4.90625v-30c0-2.778924 2.221076-5 5-5h30c2.778924 0 5 2.221076 5 5v30c0 2.431563-1.71321 4.44313-4 4.90625 2.847169-.47138 5-2.921384 5-5.90625v-30c0-3.324-2.676-6-6-6z" fill="url(#i)" opacity=".1"></path><path d="m54 48c-3.324 0-6 2.676-6 6v30c0 2.984862 2.152831 5.434872 5 5.90625-2.286789-.463119-4-2.474691-4-4.90625v-30c0-2.778924 2.221076-5 5-5h30c2.778924 0 5 2.221076 5 5v30c0 2.431563-1.71321 4.44313-4 4.90625 2.847169-.47138 5-2.921384 5-5.90625v-30c0-3.324-2.676-6-6-6z" fill="url(#j)" opacity=".1"></path></g></svg>